<svg width="512" height="512" viewBox="0 0 512 512" fill="none" xmlns="http://www.w3.org/2000/svg">
  <!-- Background -->
  <rect width="512" height="512" fill="#000000"/>
  
  <!-- Orange accent border -->
  <rect x="20" y="20" width="472" height="472" fill="none" stroke="#ff6b00" stroke-width="8"/>
  
  <!-- MD Icon -->
  <g transform="translate(100, 140)">
    <!-- M -->
    <path d="M0 0 L0 200 L30 200 L30 60 L80 160 L100 160 L150 60 L150 200 L180 200 L180 0 L140 0 L90 120 L40 0 Z" fill="#ffffff"/>
    
    <!-- D -->
    <path d="M220 0 L220 200 L280 200 C340 200 380 160 380 100 C380 40 340 0 280 0 Z M250 30 L280 30 C320 30 350 60 350 100 C350 140 320 170 280 170 L250 170 Z" fill="#ff6b00"/>
  </g>
  
  <!-- Subtle grid pattern -->
  <defs>
    <pattern id="grid" width="40" height="40" patternUnits="userSpaceOnUse">
      <path d="M 40 0 L 0 0 0 40" fill="none" stroke="#1a1a1a" stroke-width="1"/>
    </pattern>
  </defs>
  <rect width="512" height="512" fill="url(#grid)" opacity="0.3"/>
</svg>
